<svg width="153" height="153" viewBox="0 0 153 153" xmlns="http://www.w3.org/2000/svg" xmlns:xlink="http://www.w3.org/1999/xlink"><title>logo-color</title><defs><filter x="-22.3%" y="-16.7%" width="144.6%" height="145%" filterUnits="objectBoundingBox" id="a"><feOffset dy="7" in="SourceAlpha" result="shadowOffsetOuter1"/><feGaussianBlur stdDeviation="6.5" in="shadowOffsetOuter1" result="shadowBlurOuter1"/><feColorMatrix values="0 0 0 0 0 0 0 0 0 0 0 0 0 0 0 0 0 0 0.19 0" in="shadowBlurOuter1" result="shadowMatrixOuter1"/><feMerge><feMergeNode in="shadowMatrixOuter1"/><feMergeNode in="SourceGraphic"/></feMerge></filter><path d="M59.89 119.779c33.076 0 59.889-26.813 59.889-59.89C119.779 26.813 92.966 0 59.889 0 26.813 0 0 26.813 0 59.89c0 33.076 26.813 59.889 59.89 59.889z" id="b"/><linearGradient x1="42.91%" y1="44.608%" x2="0%" y2="2.203%" id="c"><stop stop-color="#01006D" stop-opacity="-.008" offset="0%"/><stop stop-color="#FF6D00" stop-opacity="0" offset="0%"/><stop stop-color="#EF9101" offset="100%"/></linearGradient><path d="M59.89 119.779c33.076 0 59.889-26.813 59.889-59.89C119.779 26.813 92.966 0 59.889 0 26.813 0 0 26.813 0 59.89c0 33.076 26.813 59.889 59.89 59.889z" id="e"/></defs><g filter="url(#a)" transform="translate(16.5 10)" fill="none" fill-rule="evenodd"><path d="M59.89 119.779c33.076 0 59.889-26.813 59.889-59.89C119.779 26.813 92.966 0 59.889 0 26.813 0 0 26.813 0 59.89c0 33.076 26.813 59.889 59.89 59.889z" fill-rule="nonzero" fill="#FF9800"/><mask id="d" fill="#fff"><use xlink:href="#b"/></mask><path d="M60.426 38.563c-1.616.176-1.941 3.97-3.39 5.335C38.484 61.391 40.325 56.095 40.362 81.43l102.262 102.262 41.174-41.174-103.38-103.38c1.88 11.806.08 13.006-3.547 10.657l-1.286 3.928-15.16-15.16z" fill="url(#c)" fill-rule="nonzero" mask="url(#d)"/><path d="M59.89 119.779c33.076 0 59.889-26.813 59.889-59.89C119.779 26.813 92.966 0 59.889 0 26.813 0 0 26.813 0 59.89c0 33.076 26.813 59.889 59.89 59.889z" stroke="#FFF5DF" stroke-width="7"/><mask id="f" fill="#fff"><use xlink:href="#e"/></mask><g fill-rule="nonzero" fill="#FFF5DF" mask="url(#f)"><path d="M38.111 78.117c0 1.58 1.233 2.87 2.74 2.87 1.504 0 2.737-1.29 2.737-2.87V61.273c0-3.271 2.684-5.948 5.964-5.948h7.426c4.223 0 7.675-3.443 7.675-7.65v-1.913c0-4.208-3.452-7.65-7.675-7.65H45.787c-4.223 0-7.676 3.442-7.676 7.65v1.913c0 .229.016.453.035.678-.014.118-.035.236-.035.357v29.407-2.39M81.667 40.98c0-1.578-1.233-2.869-2.738-2.869s-2.738 1.291-2.738 2.87v16.844c0 3.273-2.685 5.948-5.965 5.948h-7.427c-4.222 0-7.673 3.442-7.673 7.65v1.914c0 4.207 3.451 7.65 7.673 7.65h11.193c4.22 0 7.675-3.443 7.675-7.65v-1.913c0-.23-.016-.455-.036-.678.014-.12.036-.235.036-.358V40.98"/></g></g></svg>